<?xml version="1.0" encoding="utf-8"?>
<!-- Generator: Adobe Illustrator 24.1.2, SVG Export Plug-In . SVG Version: 6.00 Build 0)  -->
<svg version="1.1" xmlns="http://www.w3.org/2000/svg" xmlns:xlink="http://www.w3.org/1999/xlink" x="0px" y="0px"
	 viewBox="0 0 500 99" style="enable-background:new 0 0 500 99;" xml:space="preserve">
<style type="text/css">
	.st0{fill:#000DE7;}
</style>
<g id="Camada_1">
	<g transform="translate(0.000000,99.000000) scale(0.100000,-0.100000)">
		<path d="M2110,935v-55h90h90V672V464l65-21l65-21l2,221l3,222l83,3l82,3v59v60h-240h-240V935z"/>
		<path d="M3120,680V370h68h67l-3,310l-3,310h-64h-65V680z"/>
		<path d="M3840,685V380h195h195v50v50h-130h-130v75v75h110h110v50v49l-107,3l-108,3l-3,73l-3,72h126h125v55v55h-190h-190V685z"/>
		<path class="st0" d="M4716,965c-76-27-128-98-128-175c0-96,50-147,179-180c50-12,77-44,62-71c-11-22,11-39,85-64c67-22,81-8,80,74
			c-1,93-52,153-158,187c-79,25-108,71-68,107c25,23,63,21,124-5l51-22l18,23c24,29,25,83,2,103C4918,980,4792,992,4716,965z"/>
	</g>
</g>
<g id="Camada_2">
	<path class="st0" d="M65.3,16.4c-17.8,1.9-37.4,9-50.4,18.3c-7.1,5-14,12.2-13.1,13.6c0.4,0.6,3.7,1,7.4,1c6.3,0,7.1-0.2,12.2-4.1
		c12.7-9.5,30.8-17.1,44-18.4c6.5-0.7,25.1,0.5,39.9,2.6c11.8,1.6,24,5.1,52.7,15.3C240.8,73.8,291,88.8,326.3,95
		c19.7,3.4,49.4,4.3,65.9,1.9c16.1-2.4,35.3-6.9,49.9-11.8c19.2-6.4,52.2-23.6,52.2-27.2c0-1.1-9.9-6.6-11.8-6.6c-0.5,0-3,2-5.6,4.4
		c-8.9,8.3-30.4,17.4-57.1,24c-36.8,9.2-64.1,9.7-100.6,2.1c-16.2-3.3-93.8-25.7-109.9-31.6c-65.1-24.1-91.8-31.6-119.5-33.9
		c-7-0.5-13.5-0.9-14.4-0.9C74.5,15.5,70,16,65.3,16.4z"/>
</g>
</svg>
